STARTFONT 2.1
FONT jis.jis7200.24
SIZE 24 72 72
FONTBOUNDINGBOX 24 24 0 -3
STARTPROPERTIES 4
FONT_DESCENT 3
FONT_ASCENT 21
DEFAULT_CHAR 6
COPYRIGHT "Copyright (c) 1992 AT&T - All rights reserved."
ENDPROPERTIES
CHARS 130
STARTCHAR ch-6
ENCODING 6
SWIDTH 1000 0
DWIDTH 24 0
BBX 24 24 0 -3
BITMAP
0e1018
0c1ffc
0c1818
0c1818
0c1ff8
0d1818
2dd818
2d9ff8
2d0440
6e0448
6c3ffc
cc0440
cc0442
0cffff
0c0c20
0c0910
0a111c
192d6f
19c546
118100
300d70
20f11c
40670c
800300
ENDCHAR
STARTCHAR ch-13
ENCODING 13
SWIDTH 1000 0
DWIDTH 24 0
BBX 24 24 0 -3
BITMAP
0e0100
0c0182
0c4103
0c27e6
0c3424
0d3428
2d8420
2d87e0
2d1428
6e3426
6ce423
cc67e3
cc4180
0c0180
0cffff
1a07a0
1907a0
190d90
118d90
319998
20318f
60618e
418186
800180
ENDCHAR
STARTCHAR ch-16
ENCODING 16
SWIDTH 1000 0
DWIDTH 24 0
BBX 24 24 0 -3
BITMAP
0e01c0
0c018c
0c01fe
0c0180
0c4186
0d7fff
2de206
2d63e4
2d6e08
6e620c
6c61fc
cc6000
cc67fc
0c6444
0c67fc
1a6444
1967fc
19e000
11effe
304922
20c922
608922
411fff
800000
ENDCHAR
STARTCHAR ch-27
ENCODING 27
SWIDTH 1000 0
DWIDTH 24 0
BBX 24 24 0 -3
BITMAP
1c8446
18fe7f
18c446
18c446
18fc7e
1ac446
5bc446
5afc7e
5ac106
5cdff6
d8c106
d8cfe6
d8c926
18cfe6
18c926
14c926
14cfe6
14c306
36c386
26c566
26d926
60c106
40c11e
80c00c
ENDCHAR
STARTCHAR ch-40
ENCODING 40
SWIDTH 1000 0
DWIDTH 24 0
BBX 24 24 0 -3
BITMAP
02ff08
17817c
1cf908
108178
1ef908
108978
1ef908
50810a
7fffff
420086
dfc7f4
c60180
0b82f0
32cc98
023082
ffffff
00c080
019c40
0718f0
1d9d9f
e0b606
00e380
0381f8
1c0070
ENDCHAR
STARTCHAR ch-42
ENCODING 42
SWIDTH 1000 0
DWIDTH 24 0
BBX 24 24 0 -3
BITMAP
000070
0003f8
083f80
0fe040
0c0040
0c3840
0c3040
0c3040
0c3040
0c3040
0c3040
0c3020
0c3020
0c3020
0c3020
0c3030
083030
183010
183018
103018
30300c
20300f
403006
803006
ENDCHAR
STARTCHAR ch-44
ENCODING 44
SWIDTH 1000 0
DWIDTH 24 0
BBX 24 24 0 -3
BITMAP
006000
00f40c
23c7fe
3e464c
30464c
33464c
33464c
33464c
33464c
3347fc
33460c
336600
332600
332602
332602
333603
3317ff
331bfe
330800
230c00
230700
6303e0
4300ff
83003e
ENDCHAR
STARTCHAR ch-45
ENCODING 45
SWIDTH 1000 0
DWIDTH 24 0
BBX 24 24 0 -3
BITMAP
0000c0
0007e0
043e00
07e080
0e3060
0c1c38
180c1c
10000c
2ffff0
401830
001830
001836
ffffff
001830
001830
001830
0ffff0
001830
001800
001800
001800
001800
00f800
003000
ENDCHAR
STARTCHAR ch-48
ENCODING 48
SWIDTH 1000 0
DWIDTH 24 0
BBX 24 24 0 -3
BITMAP
0000e0
0007f0
087f00
0fe0c0
1c3030
18181c
30180e
200066
4ffff0
006000
006006
ffffff
00c000
00c0c0
01ffe0
0180c0
034180
066300
0c3600
181c00
303700
c0e3e0
0380ff
1c001e
ENDCHAR
STARTCHAR ch-50
ENCODING 50
SWIDTH 1000 0
DWIDTH 24 0
BBX 24 24 0 -3
BITMAP
0000e0
0007f0
107e00
1fe0c0
183030
38181c
30180e
6fff86
4c0180
8c0180
0c01b0
0ffff8
0c0030
0c0030
0c0036
0fffff
0c0006
0c00c6
180c66
1a4666
12660e
26600c
4600fc
000038
ENDCHAR
STARTCHAR ch-53
ENCODING 53
SWIDTH 1000 0
DWIDTH 24 0
BBX 24 24 0 -3
BITMAP
000078
001ffc
3ffc20
041030
020860
22088c
3ffffe
30c30c
30c30c
3ffffc
000000
3fe01c
306018
306018
3fefff
306018
306418
3fe318
300198
308198
306018
ffb018
7830f8
400030
ENDCHAR
STARTCHAR ch-54
ENCODING 54
SWIDTH 1000 0
DWIDTH 24 0
BBX 24 24 0 -3
BITMAP
010000
01c300
0180c0
038070
030038
06001c
0c010e
1801c6
610180
010180
008300
008300
004600
006600
003c00
001800
001c00
003600
006380
00c1e0
0180f8
06007f
18001e
e0000c
ENDCHAR
STARTCHAR ch-58
ENCODING 58
SWIDTH 1000 0
DWIDTH 24 0
BBX 24 24 0 -3
BITMAP
008000
01c0c0
030038
06810e
184386
603600
001c00
007780
03c1ff
1e001e
e00200
3ffbfc
0c6308
0c6318
0fe310
0c6320
0c6310
0fe308
0c630c
0c630c
7fe30c
3c633c
206318
006300
ENDCHAR
STARTCHAR ch-59
ENCODING 59
SWIDTH 1000 0
DWIDTH 24 0
BBX 24 24 0 -3
BITMAP
000080
0000e0
0701c0
00f380
003e00
000f80
0019e0
007070
01c038
070118
3801c0
010180
010380
008300
008300
004600
006600
003c00
001800
003e00
0067c0
01c1ff
0f007e
f0000e
ENDCHAR
STARTCHAR ch-60
ENCODING 60
SWIDTH 1000 0
DWIDTH 24 0
BBX 24 24 0 -3
BITMAP
010818
01cffc
618c18
1b8c18
0f0c18
060c18
0f0c18
098c18
11cff8
20cc18
c00c18
010c18
01cc18
018c18
630c18
1b0ff8
0e0c18
070c18
0d8c18
09cc18
10cc18
200c1e
c07fff
000000
ENDCHAR
STARTCHAR ch-61
ENCODING 61
SWIDTH 1000 0
DWIDTH 24 0
BBX 24 24 0 -3
BITMAP
001c00
001800
001806
ffffff
001800
011808
31998c
0b1858
061830
1998cc
609b04
001800
021804
6318c6
16182c
0c3418
1b3424
3162c6
c06302
00c1c0
0180f0
07007f
1c001e
e00006
ENDCHAR
STARTCHAR ch-62
ENCODING 62
SWIDTH 1000 0
DWIDTH 24 0
BBX 24 24 0 -3
BITMAP
000006
ffffff
041800
071860
0e181c
381807
c01803
3ffffc
30984c
34da6c
32994c
31188c
32d96c
345a2c
30180c
30984c
34da6c
32994c
31188c
32994c
345a2c
30180c
30187c
301818
ENDCHAR
STARTCHAR ch-63
ENCODING 63
SWIDTH 1000 0
DWIDTH 24 0
BBX 24 24 0 -3
BITMAP
000070
00e060
00c060
00c060
00c060
00c060
00c060
00c060
00ffe0
00c060
000060
000060
3fffe0
00c060
00c060
00c060
00c060
00c060
018060
018060
030060
060060
180060
000060
ENDCHAR
STARTCHAR ch-64
ENCODING 64
SWIDTH 1000 0
DWIDTH 24 0
BBX 24 24 0 -3
BITMAP
038380
030300
030300
430300
230300
330306
1bffff
1b0740
1b0740
030740
030f60
030f20
030b20
071b30
0b1310
3b1318
f3331c
63230f
43430e
038306
030300
030300
030300
030300
ENDCHAR
STARTCHAR ch-70
ENCODING 70
SWIDTH 1000 0
DWIDTH 24 0
BBX 24 24 0 -3
BITMAP
070380
06030c
06fffe
060300
462310
263b1c
363318
366330
365b2c
068b44
060302
07ffff
060000
0e400c
167ffe
36600c
e667cc
66644c
46644c
06644c
0667cc
06600c
067ffc
06600c
ENDCHAR
STARTCHAR ch-71
ENCODING 71
SWIDTH 1000 0
DWIDTH 24 0
BBX 24 24 0 -3
BITMAP
000e00
0e0c00
0c0c00
0c0c00
0c0c00
0c0c00
0c0c06
0fffff
0c0000
0c0000
0c0000
0c0000
0c0180
0fffc0
0c0180
0c0180
180180
180180
100180
300180
200180
400180
800180
000180
ENDCHAR
STARTCHAR ch-72
ENCODING 72
SWIDTH 1000 0
DWIDTH 24 0
BBX 24 24 0 -3
BITMAP
380000
339006
331fff
331800
331800
331800
331800
3fd818
301ffc
301a18
301a18
331a18
3f9918
331930
3319b0
3318a0
3330e0
333040
2330e0
2321b0
636118
43421f
80840e
011806
ENDCHAR
STARTCHAR ch-75
ENCODING 75
SWIDTH 1000 0
DWIDTH 24 0
BBX 24 24 0 -3
BITMAP
3b8ec0
330c60
330c0c
33047e
330780
333e30
330360
3fc182
3002c2
300c72
30301f
318d87
3fccc0
31841e
3187e0
31be10
318318
218130
2181a0
6180c2
418162
41823a
818c1f
01b007
ENDCHAR
STARTCHAR ch-76
ENCODING 76
SWIDTH 1000 0
DWIDTH 24 0
BBX 24 24 0 -3
BITMAP
3b8100
3301c0
331186
331fff
3318c6
3318c6
3318c6
3fdffe
3018c6
3018c6
3018c6
319ffe
3fc400
318670
318c60
319060
318066
21bfff
218060
618060
418060
418060
818060
018060
ENDCHAR
STARTCHAR ch-82
ENCODING 82
SWIDTH 1000 0
DWIDTH 24 0
BBX 24 24 0 -3
BITMAP
3b8c90
330c90
330c90
330c96
337fff
330c90
330c90
3fcc90
300cf0
300c00
300c0c
330ffe
3f8c00
3301c0
330186
337fff
3303a0
3307a0
330590
330d98
23198f
63318e
434186
830180
ENDCHAR
STARTCHAR ch-88
ENCODING 88
SWIDTH 1000 0
DWIDTH 24 0
BBX 24 24 0 -3
BITMAP
3b81c0
330186
337fff
330180
333ffe
330000
333ffe
3fe642
303c7e
302002
303ffe
330000
3f9004
331ffe
331004
331ffc
331004
231ffc
231004
631ffc
430800
430e38
831c0e
036006
ENDCHAR
STARTCHAR ch-89
ENCODING 89
SWIDTH 1000 0
DWIDTH 24 0
BBX 24 24 0 -3
BITMAP
000018
3ffffc
030300
030300
030300
030300
030300
030300
030300
030306
ffffff
000f00
001f00
003b00
007300
00e300
01c300
030300
060300
180300
600300
000300
003f00
000e00
ENDCHAR
STARTCHAR ch-91
ENCODING 91
SWIDTH 1000 0
DWIDTH 24 0
BBX 24 24 0 -3
BITMAP
001c00
001800
081800
0e1800
0c1800
0c1818
1ffffc
181800
181800
301800
201800
401800
001806
ffffff
001800
001800
001800
001800
001800
001800
001800
001800
001800
001800
ENDCHAR
STARTCHAR ch-93
ENCODING 93
SWIDTH 1000 0
DWIDTH 24 0
BBX 24 24 0 -3
BITMAP
038700
030600
230600
3b0600
330600
336608
3ff60e
23061c
630638
430660
830680
030700
036600
038600
0f0600
fb0600
630600
430600
030602
030602
030602
030603
0307ff
0303fe
ENDCHAR
STARTCHAR ch-95
ENCODING 95
SWIDTH 1000 0
DWIDTH 24 0
BBX 24 24 0 -3
BITMAP
004000
007000
006080
004060
008030
3fffd8
1fe01c
10000c
041c00
071800
061860
0ffff0
081800
101800
201800
001806
ffffff
001800
001800
001800
001800
001800
001800
001800
ENDCHAR
STARTCHAR ch-97
ENCODING 97
SWIDTH 1000 0
DWIDTH 24 0
BBX 24 24 0 -3
BITMAP
0701c0
060180
460180
760180
660180
664180
7fe180
460180
46018c
863ffe
060180
060180
06c180
070180
1e0180
f60180
660180
460180
060180
060180
060180
060186
067fff
060000
ENDCHAR
STARTCHAR ch-98
ENCODING 98
SWIDTH 1000 0
DWIDTH 24 0
BBX 24 24 0 -3
BITMAP
001c00
101800
101806
3fffff
300006
600004
641c08
071800
061800
0c1830
0ffff8
101800
201800
401800
001806
ffffff
001800
001800
001800
001800
001800
001800
001800
001800
ENDCHAR
STARTCHAR ch-103
ENCODING 103
SWIDTH 1000 0
DWIDTH 24 0
BBX 24 24 0 -3
BITMAP
038400
030700
230600
3b0600
330600
334c06
3fefff
230830
631830
431430
432430
834460
030660
03c260
0f02c0
fb03c0
630180
4301c0
030360
030270
030438
03081f
03100e
036006
ENDCHAR
STARTCHAR ch-105
ENCODING 105
SWIDTH 1000 0
DWIDTH 24 0
BBX 24 24 0 -3
BITMAP
070800
460e00
760c00
660c00
660c00
66cc06
7fefff
460926
460926
461926
861326
06b226
072226
064666
1e0446
f60c46
6608c6
461086
062186
06010e
06020c
06040c
06087c
060018
ENDCHAR
STARTCHAR ch-114
ENCODING 114
SWIDTH 1000 0
DWIDTH 24 0
BBX 24 24 0 -3
BITMAP
0e01c0
0c0180
0c1180
4c1d80
6c1980
6d9980
7fd98c
4c1ffe
4c1180
8c3180
0d2180
0e2180
0c4180
1c0198
fc3ffc
6c0180
4c0180
0c0180
0c0180
0c0180
0c0180
0c0186
0cffff
0c0000
ENDCHAR
STARTCHAR ch-116
ENCODING 116
SWIDTH 1000 0
DWIDTH 24 0
BBX 24 24 0 -3
BITMAP
0e0018
0c21fc
0c3fc0
4c30c0
6c30c0
6d30c0
7fb0c0
4c30c0
4c30cc
8c3ffe
0c30c0
0c30c0
0db0c0
1e3060
fc3060
6c3060
4c3060
0c3332
0dfc32
0cf032
0c801a
0c019f
0cffcf
0c0006
ENDCHAR
STARTCHAR ch-121
ENCODING 121
SWIDTH 1000 0
DWIDTH 24 0
BBX 24 24 0 -3
BITMAP
0701c0
060180
460180
76018c
663ffe
668180
7fc180
460180
460186
867fff
060000
068030
070032
1e7fff
f60030
660030
461030
060c30
060630
060630
060030
060030
0601f0
060060
ENDCHAR
STARTCHAR ch-125
ENCODING 125
SWIDTH 1000 0
DWIDTH 24 0
BBX 24 24 0 -3
BITMAP
001c00
001800
001806
ffffff
002100
0271c0
218380
208406
3fffff
603006
602104
c040c8
cfff60
07c060
041c00
071800
0e1818
1ffffc
601800
001806
ffffff
001800
001800
001800
ENDCHAR
STARTCHAR ch-126
ENCODING 126
SWIDTH 1000 0
DWIDTH 24 0
BBX 24 24 0 -3
BITMAP
0e000c
0c3ffe
0c0300
4c0300
6c0300
6d8318
7fdffc
4c0618
4c0618
8c0618
0c0c18
0d8c1a
1e7fff
fc0000
6c0000
4c100c
0c1ffe
0c180c
0c180c
0c180c
0c180c
0c180c
0c1ffc
0c180c
ENDCHAR
STARTCHAR ch-128
ENCODING 128
SWIDTH 1000 0
DWIDTH 24 0
BBX 24 24 0 -3
BITMAP
10000c
1ffffe
18000c
18000c
18000c
1ffffc
18000c
180600
1be67c
180600
180600
1be67c
180000
188700
18e600
18c630
31fff8
310600
220606
6fffff
400600
800600
000600
000600
ENDCHAR
STARTCHAR ch-129
ENCODING 129
SWIDTH 1000 0
DWIDTH 24 0
BBX 24 24 0 -3
BITMAP
00600e
03f1cc
7f018c
03018c
03198c
fffd8c
07018c
0f818c
0f618c
1b300c
33300c
c3007c
030018
001c00
081800
0c1830
1ffff8
101800
201806
ffffff
001800
001800
001800
001800
ENDCHAR
STARTCHAR ch-130
ENCODING 130
SWIDTH 1000 0
DWIDTH 24 0
BBX 24 24 0 -3
BITMAP
00c200
07e380
7e0300
060306
0663ff
fff666
0e0466
1f08c6
1ec0c6
36618e
66630c
86047c
060018
001c00
081800
0c1830
1ffff8
101800
201806
ffffff
001800
001800
001800
001800
ENDCHAR
STARTCHAR ch-135
ENCODING 135
SWIDTH 1000 0
DWIDTH 24 0
BBX 24 24 0 -3
BITMAP
041c00
071800
061860
0ffff0
081800
101800
001806
ffffff
001800
001800
071870
260260
360360
36c36c
7fe7fe
460460
860860
07e066
ff8fff
7e0060
460060
060060
060060
060060
ENDCHAR
STARTCHAR ch-146
ENCODING 146
SWIDTH 1000 0
DWIDTH 24 0
BBX 24 24 0 -3
BITMAP
0e01c0
0c0180
0c0186
4c7fff
6c0000
6d8818
7fcffc
4c0c18
4c0c18
8c0ff8
0c0000
0c2006
0dbfff
1e3006
fc3006
6c33e6
4c3226
0c3226
0c3226
0c33e6
0c3006
0c3006
0c303e
0c300c
ENDCHAR
STARTCHAR ch-150
ENCODING 150
SWIDTH 1000 0
DWIDTH 24 0
BBX 24 24 0 -3
BITMAP
0180c0
012088
09349c
0964b0
1b0d80
128940
066330
042218
280408
200006
7fffff
600006
c41c04
c71808
061830
0ffff8
081800
101806
ffffff
001800
001800
001800
001800
001800
ENDCHAR
STARTCHAR ch-160
ENCODING 160
SWIDTH 1000 0
DWIDTH 24 0
BBX 24 24 0 -3
BITMAP
0e0830
0c0630
0c0644
4c7ffe
6c0180
6d0180
7fbffc
4c0180
4c0182
8cffff
0c0000
0c84e8
0f1ec6
fcf8c2
6c18c0
4dffff
0c18c8
0c1e4c
0df858
0cd832
0c9872
0c18da
0cfb0f
0c3003
ENDCHAR
STARTCHAR ch-162
ENCODING 162
SWIDTH 1000 0
DWIDTH 24 0
BBX 24 24 0 -3
BITMAP
0e01c0
0c0186
0c7fff
4c0180
6c3ffe
6d0000
7fbffe
4c2642
4c3c7e
8c2002
0c3ffe
0c0000
0d9004
1e1ffe
fc1004
6c1ffc
4c1004
0c1ffc
0c1004
0c1ffc
0c0800
0c0e38
0c1c0e
0c6006
ENDCHAR
STARTCHAR ch-167
ENCODING 167
SWIDTH 1000 0
DWIDTH 24 0
BBX 24 24 0 -3
BITMAP
0e1010
0c0c30
0c0444
4c7ffe
6c0100
6d3ffc
7f8100
4c0102
4cffff
8c0008
0c7f26
0e0822
1dffff
fc1820
6c2f24
4cc9a7
0f08a6
0cff2c
0c2018
0c7e12
0c062a
0c044e
0c7d87
0c1803
ENDCHAR
STARTCHAR ch-172
ENCODING 172
SWIDTH 1000 0
DWIDTH 24 0
BBX 24 24 0 -3
BITMAP
001c00
001800
001880
001860
001830
001830
001800
001806
ffffff
001800
001800
001800
003400
003400
003600
006200
006300
00c180
00c1c0
0180e0
030078
06003f
18001e
e0000c
ENDCHAR
STARTCHAR ch-175
ENCODING 175
SWIDTH 1000 0
DWIDTH 24 0
BBX 24 24 0 -3
BITMAP
010000
01c80c
438ffe
230c0c
160c0c
0c0c0c
1c0c0c
360c0c
660c0c
860c0c
0f0c0c
0b0c7c
1b0c18
130c00
230c00
430c00
830c00
030c02
030c02
030c02
070c03
060fff
3e07fe
0c0000
ENDCHAR
STARTCHAR ch-178
ENCODING 178
SWIDTH 1000 0
DWIDTH 24 0
BBX 24 24 0 -3
BITMAP
010038
01c030
438030
230030
160030
0c0036
1c7fff
360070
660070
8600f0
0f00f0
0b01b0
1b01b0
130330
230330
430630
830c30
031830
036030
030030
070030
060030
3e03f0
0c0060
ENDCHAR
STARTCHAR ch-182
ENCODING 182
SWIDTH 1000 0
DWIDTH 24 0
BBX 24 24 0 -3
BITMAP
038380
030320
030318
03030c
43030c
330300
1b0300
1b0306
037fff
030300
030300
030300
030280
070680
1b0680
f30640
630440
430c60
030c20
030830
031818
03101f
03200e
034006
ENDCHAR
STARTCHAR ch-185
ENCODING 185
SWIDTH 1000 0
DWIDTH 24 0
BBX 24 24 0 -3
BITMAP
010700
01c640
438620
230630
160630
0c0606
1cffff
360600
660600
860600
0f0e00
0b0dc0
1b0d80
130d80
230d80
431980
831980
031980
031180
033182
072182
064183
3e81ff
0c00fe
ENDCHAR
STARTCHAR ch-194
ENCODING 194
SWIDTH 1000 0
DWIDTH 24 0
BBX 24 24 0 -3
BITMAP
020000
038000
43000c
263ffe
160180
0c0180
180180
340180
440180
860180
0e0180
0a018c
1b3ffe
130180
230180
430180
830180
030180
030180
030180
070180
060186
3e7fff
0c0000
ENDCHAR
STARTCHAR ch-195
ENCODING 195
SWIDTH 1000 0
DWIDTH 24 0
BBX 24 24 0 -3
BITMAP
010000
01c030
43bff8
230630
160630
0c0630
1c0630
360630
660630
860630
0f0636
0b7fff
1b0c30
130c30
230c30
430c30
830c30
030c30
030c30
030c30
070c30
060c36
3e7fff
0c0000
ENDCHAR
STARTCHAR ch-196
ENCODING 196
SWIDTH 1000 0
DWIDTH 24 0
BBX 24 24 0 -3
BITMAP
0101c0
01c180
438180
230180
160184
0c1187
1c1186
36118c
663188
863190
0f6180
0b6180
1b0340
130340
230340
430220
830620
030630
030430
030c18
07081c
06100f
3e200e
0cc006
ENDCHAR
STARTCHAR ch-198
ENCODING 198
SWIDTH 1000 0
DWIDTH 24 0
BBX 24 24 0 -3
BITMAP
0101c0
01c180
438180
230180
160180
0c2186
1c3fff
363186
663186
863186
0f3186
0b3186
1b3186
133186
233ffe
433186
830180
030180
030180
030180
070180
060180
3e0180
0c0180
ENDCHAR
STARTCHAR ch-206
ENCODING 206
SWIDTH 1000 0
DWIDTH 24 0
BBX 24 24 0 -3
BITMAP
020000
03a006
433fff
263186
163186
0c3186
1c3186
363186
663ffe
863186
0f3186
0b3186
1b3186
133186
233ffe
433186
830180
030180
030180
030180
070180
060180
3e0180
0c0180
ENDCHAR
STARTCHAR ch-208
ENCODING 208
SWIDTH 1000 0
DWIDTH 24 0
BBX 24 24 0 -3
BITMAP
040018
0720fc
863fe0
443020
283320
103320
183320
283320
2c3320
4c3320
8c3320
1e3330
163310
163310
363310
263310
463318
862318
066348
06634c
0e43ec
0cdf6f
7c8c66
190006
ENDCHAR
STARTCHAR ch-210
ENCODING 210
SWIDTH 1000 0
DWIDTH 24 0
BBX 24 24 0 -3
BITMAP
020ee0
038cc0
430cc0
260cc4
16fffe
0c0cc4
1c0cc4
344cc4
667ffc
864cc4
0e4cc0
0e4cc0
1e4cc6
16ffff
26ccc6
460cc6
860cc6
060cc6
060cc6
0618fe
0e18cc
0c30c0
7c60c0
1980c0
ENDCHAR
STARTCHAR ch-215
ENCODING 215
SWIDTH 1000 0
DWIDTH 24 0
BBX 24 24 0 -3
BITMAP
020800
038e00
430c00
260c00
161806
0c1fff
183006
342006
4450c6
869fe6
0e18c6
0a18c6
1b18c6
1318c6
2318c6
4318c6
831fc6
0318c6
031806
03000e
07000c
06001c
3e00f8
0c0030
ENDCHAR
STARTCHAR ch-217
ENCODING 217
SWIDTH 1000 0
DWIDTH 24 0
BBX 24 24 0 -3
BITMAP
021018
439ffc
231818
161818
1c1818
081818
1c1818
341818
661ff8
861818
0e1818
0b1818
1b1818
131818
231818
431ff8
831818
031818
031818
031818
071818
06181a
3effff
0c0000
ENDCHAR
STARTCHAR ch-219
ENCODING 219
SWIDTH 1000 0
DWIDTH 24 0
BBX 24 24 0 -3
BITMAP
020100
0381c0
430180
260300
160200
1c2406
083fff
1c3006
343006
663006
863006
0e3006
0b3006
1b3ffe
133006
333006
633006
833006
033006
033006
073006
063ffe
3e3006
0c3006
ENDCHAR
STARTCHAR ch-224
ENCODING 224
SWIDTH 1000 0
DWIDTH 24 0
BBX 24 24 0 -3
BITMAP
011018
01dffc
439818
231818
161818
0c1818
1c1ff8
361818
661818
861818
0f1818
0b1ff8
1b1884
131887
231886
43184c
831850
031860
031820
0319b0
071e18
06f81f
3e700e
0c4006
ENDCHAR
STARTCHAR ch-225
ENCODING 225
SWIDTH 1000 0
DWIDTH 24 0
BBX 24 24 0 -3
BITMAP
0201c0
038180
430180
260186
16ffff
0c0000
1c1020
341c18
66180c
863006
0e2006
0e4020
1e0838
160830
260470
460460
8602e0
0603c0
060180
0603c0
0e0670
0c0c3f
7c301e
18c006
ENDCHAR
STARTCHAR ch-226
ENCODING 226
SWIDTH 1000 0
DWIDTH 24 0
BBX 24 24 0 -3
BITMAP
020800
038e00
430c30
261ff8
161830
0c3060
1c2860
3444c0
668380
860380
0e06e0
0e0c7f
1e101e
166006
278000
463ff8
863018
063018
063018
063018
0e3018
0c3ff8
7c3018
183018
ENDCHAR
STARTCHAR ch-233
ENCODING 233
SWIDTH 1000 0
DWIDTH 24 0
BBX 24 24 0 -3
BITMAP
040380
070300
864300
4c4306
28ffff
10c006
398004
698070
8c0060
0c0060
1e0066
16ffff
160060
360060
262060
461860
860c60
060c60
060060
060060
060060
0c0060
7c03e0
1800c0
ENDCHAR
STARTCHAR ch-236
ENCODING 236
SWIDTH 1000 0
DWIDTH 24 0
BBX 24 24 0 -3
BITMAP
0201c0
438180
230180
160180
1c0180
08218c
1c3ffe
24318c
46318c
86318c
0e318c
0b318c
0b318c
1b318c
133ffc
33318c
233180
430188
830184
030186
0701fe
067fc3
3e3c03
0c2003
ENDCHAR
STARTCHAR ch-237
ENCODING 237
SWIDTH 1000 0
DWIDTH 24 0
BBX 24 24 0 -3
BITMAP
020380
038300
430300
26030c
147ffe
080300
184310
2c231c
4c3318
8c3330
1e3320
160340
160306
26ffff
260680
460680
860640
060c40
060c20
061830
0e1818
0c301f
7c600e
198006
ENDCHAR
STARTCHAR ch-247
ENCODING 247
SWIDTH 1000 0
DWIDTH 24 0
BBX 24 24 0 -3
BITMAP
02100c
039ffe
43180c
26180c
16180c
0c1ffc
1c0000
360000
66100c
861ffe
0f180c
0b180c
1b180c
131ffc
23180c
43180c
83180c
031ffc
03180c
03180c
07180c
06180c
3e187c
0c1818
ENDCHAR
STARTCHAR ch-248
ENCODING 248
SWIDTH 1000 0
DWIDTH 24 0
BBX 24 24 0 -3
BITMAP
02200c
43bffe
23318c
16318c
1c318c
08318c
1c3ffc
24318c
46318c
86318c
0e318c
0b3ffc
1b318c
130180
330180
23018c
433ffe
830180
030180
070180
060180
0e0186
7cffff
180000
ENDCHAR
STARTCHAR ch-249
ENCODING 249
SWIDTH 1000 0
DWIDTH 24 0
BBX 24 24 0 -3
BITMAP
020380
038300
430300
260306
16ffff
0c0300
1c2320
343b38
663330
863330
0e2330
0e7328
1e5b24
169b46
270786
460680
8606c0
060c40
060c60
061830
0e1838
0c301f
7c600e
198006
ENDCHAR
STARTCHAR ch-252
ENCODING 252
SWIDTH 1000 0
DWIDTH 24 0
BBX 24 24 0 -3
BITMAP
020380
038300
830300
422318
263ffc
343018
1c3018
183018
283ff8
2c3018
4c3018
8c3018
1c3ff8
163104
363107
26310e
463098
8630a0
063040
063060
063338
0dfc1f
7ce00e
188006
ENDCHAR
STARTCHAR ch-253
ENCODING 253
SWIDTH 1000 0
DWIDTH 24 0
BBX 24 24 0 -3
BITMAP
020000
43900c
231ffe
16180c
1c180c
08180c
1c180c
141ffc
26180c
46180c
86180c
0f180c
0b1ffc
1b180c
13180c
23180c
43180c
831ffc
030800
030e10
070c0c
061806
3e3003
0cc003
ENDCHAR
STARTCHAR ch-266
ENCODING 266
SWIDTH 1000 0
DWIDTH 24 0
BBX 24 24 0 -3
BITMAP
020300
03a78c
433c7e
26300c
16300c
0c300c
1c3e7c
36300c
66300c
86300c
0f300c
0b3ffc
1b30cc
1300c0
2308c0
430ec0
830cc0
030cc0
030cc2
0318c2
0718c2
0610c3
3e20ff
0cc07e
ENDCHAR
STARTCHAR ch-278
ENCODING 278
SWIDTH 1000 0
DWIDTH 24 0
BBX 24 24 0 -3
BITMAP
01100c
01dffe
43980c
23180c
16180c
0c1ffc
1c180c
36180c
66180c
861ffc
0f0000
0b0000
1b2006
133fff
233006
433006
833006
033ffe
033006
033006
073006
063006
3e3ffe
0c3006
ENDCHAR
STARTCHAR ch-279
ENCODING 279
SWIDTH 1000 0
DWIDTH 24 0
BBX 24 24 0 -3
BITMAP
010380
01c300
438318
237ffc
160300
0c0680
1c0660
360c30
663030
860006
0fffff
0b0018
1b0018
132198
233f98
433198
833198
033198
033f98
033198
070018
060018
3e00f8
0c0030
ENDCHAR
STARTCHAR ch-283
ENCODING 283
SWIDTH 1000 0
DWIDTH 24 0
BBX 24 24 0 -3
BITMAP
040018
877ffc
460030
2c0060
380280
100300
380306
29ffff
4c0300
8c0300
0c0300
1e1f00
160600
364018
267ffc
466498
866498
066498
066498
066498
0e6498
0c649a
7dffff
180000
ENDCHAR
STARTCHAR ch-284
ENCODING 284
SWIDTH 1000 0
DWIDTH 24 0
BBX 24 24 0 -3
BITMAP
0101c0
01c180
438184
233ffe
160180
0c0188
1c1ffc
360180
660182
877fff
0f0000
0b1018
1b1ffc
131818
231818
431ff8
831818
031818
031ff8
031818
071818
061818
3e18f8
0c1830
ENDCHAR
STARTCHAR ch-285
ENCODING 285
SWIDTH 1000 0
DWIDTH 24 0
BBX 24 24 0 -3
BITMAP
020380
038300
430300
26030c
16fffe
0c0000
1c1040
341c70
661860
863060
0e2cd8
0e448c
1e810c
160000
260306
47ffff
860300
060300
060300
060300
0e0300
0c0300
7c0300
180300
ENDCHAR
STARTCHAR ch-287
ENCODING 287
SWIDTH 1000 0
DWIDTH 24 0
BBX 24 24 0 -3
BITMAP
080810
8e841c
4c4618
286318
183330
103020
380040
287ff8
4c6318
8c6318
0c6318
1c7ff8
166318
366318
266318
466318
867ff8
06631a
06630a
06430a
0c430e
0cc306
7c8307
190003
ENDCHAR
STARTCHAR ch-293
ENCODING 293
SWIDTH 1000 0
DWIDTH 24 0
BBX 24 24 0 -3
BITMAP
02200c
03bffe
43318c
26318c
16318c
0c3ffc
1c318c
36318c
66318c
863ffc
0f300c
0b0000
1b0006
13ffff
231908
43190e
83189c
0318b0
031840
031860
071b38
06fc1f
3e700e
0c4006
ENDCHAR
STARTCHAR ch-297
ENCODING 297
SWIDTH 1000 0
DWIDTH 24 0
BBX 24 24 0 -3
BITMAP
01100c
01dffe
43980c
23180c
161ffc
0c180c
1c180c
36180c
661ffc
86180c
0f0000
0b11c0
1b1d80
13198c
231ffe
433180
832180
03418c
031ffe
030180
070180
060186
3e7fff
0c0000
ENDCHAR
STARTCHAR ch-298
ENCODING 298
SWIDTH 1000 0
DWIDTH 24 0
BBX 24 24 0 -3
BITMAP
020708
03860e
87060c
4606d8
2c7ff8
180630
180620
2c0660
4c06c6
8dffff
0e0300
1e0600
160c18
361ffc
263818
465818
879818
061ff8
061818
061818
0e1818
0c1ff8
7c1818
181818
ENDCHAR
STARTCHAR ch-299
ENCODING 299
SWIDTH 1000 0
DWIDTH 24 0
BBX 24 24 0 -3
BITMAP
020e70
438c60
230c60
160c66
1cffff
080c60
1c0c60
340c60
660000
86400c
0e7ffe
0e610c
1e610c
16610c
36610c
267ffc
46610c
86610c
06610c
06610c
0e610c
0c7ffc
7c600c
18600c
ENDCHAR
STARTCHAR ch-302
ENCODING 302
SWIDTH 1000 0
DWIDTH 24 0
BBX 24 24 0 -3
BITMAP
0380e0
0300c8
0318c4
fffcc6
0300c6
0300c0
4318c6
7fffff
6018c0
6898c0
64d8c0
6498a0
6518a0
7ff8a0
6318a0
631890
631890
7ff990
631998
631908
63190c
631b0f
637a06
633406
ENDCHAR
STARTCHAR ch-303
ENCODING 303
SWIDTH 1000 0
DWIDTH 24 0
BBX 24 24 0 -3
BITMAP
0201c0
037187
436186
266186
166186
0c6186
1c7ffe
346006
660000
860006
0effff
0e0180
1e0100
164206
267fff
466446
866446
066446
066446
066446
0e6446
0c6446
7c645e
18600c
ENDCHAR
STARTCHAR ch-308
ENCODING 308
SWIDTH 1000 0
DWIDTH 24 0
BBX 24 24 0 -3
BITMAP
044030
0777f8
866030
4c6030
2c6036
38dfff
18c000
38c400
2cc700
4dc618
8dc7fc
1eccc0
1cc8c0
2cd0c0
2cc0c6
4cdfff
8cc1a0
0cc1a0
0cc190
0cc110
1cc318
18c20f
f8c40e
30d806
ENDCHAR
STARTCHAR ch-310
ENCODING 310
SWIDTH 1000 0
DWIDTH 24 0
BBX 24 24 0 -3
BITMAP
042020
071838
860c30
4c0c20
2c0046
19ffff
380480
2c0480
4c448c
8c7ffe
1e648c
16648c
36648c
266cfc
46687c
86700c
06600c
06600c
067ffc
06600c
0e600c
0c600c
7c7ffc
18600c
ENDCHAR
STARTCHAR ch-311
ENCODING 311
SWIDTH 1000 0
DWIDTH 24 0
BBX 24 24 0 -3
BITMAP
4040e0
3070c8
1860c4
1840c6
0080c6
fff8c0
0500c6
050fff
4530c0
7ff8c0
6530c0
6530c0
6531a0
68f1a0
7031a0
6031a0
603110
7ff310
603318
603218
60360c
7ff40f
600806
603006
ENDCHAR
STARTCHAR ch-318
ENCODING 318
SWIDTH 1000 0
DWIDTH 24 0
BBX 24 24 0 -3
BITMAP
021018
039ffc
431818
261818
1619f8
0c1918
1c5918
34591a
667fff
86c006
0ec004
0e1018
1e1ffc
161818
261818
461ff8
861818
061818
061ff8
061818
0e1818
0c1818
7c18f8
181830
ENDCHAR
STARTCHAR ch-319
ENCODING 319
SWIDTH 1000 0
DWIDTH 24 0
BBX 24 24 0 -3
BITMAP
020380
038300
470304
267ffe
1c0300
180300
380302
2dffff
4c0000
8c2018
0c3ffc
1e3018
1e3018
163018
363ff8
260684
660c87
461c4e
863c50
066c20
0d8c30
0c0d9c
7c7e0f
183806
ENDCHAR
STARTCHAR ch-324
ENCODING 324
SWIDTH 1000 0
DWIDTH 24 0
BBX 24 24 0 -3
BITMAP
040070
070c60
86fe68
4c0064
2c0066
3bff66
100060
380060
28fc66
4c03ff
8c0060
0cfc60
1c0060
1c0060
2c8c60
2cfe50
4ccc50
8ccc50
0cccc8
0cccc8
18cc8c
18fd86
f8c107
300602
ENDCHAR
STARTCHAR ch-325
ENCODING 325
SWIDTH 1000 0
DWIDTH 24 0
BBX 24 24 0 -3
BITMAP
042006
873bff
463030
2c2030
2cf830
188932
1889ff
388932
2c8932
4cf932
8c8932
1c8132
1c8132
2c8932
2cfd32
4c8932
8c8932
0c8932
0c893e
0c8936
1cf830
188830
f80030
300030
ENDCHAR
STARTCHAR ch-334
ENCODING 334
SWIDTH 1000 0
DWIDTH 24 0
BBX 24 24 0 -3
BITMAP
000100
39c18c
3183fe
31860c
3198d8
3f8670
0183c0
019c1c
ff8018
19bfff
198818
318618
318618
6180f8
81ba30
003180
003086
ffffff
006400
00e200
01c180
0380f0
0e003f
f0000e
ENDCHAR
STARTCHAR ch-335
ENCODING 335
SWIDTH 1000 0
DWIDTH 24 0
BBX 24 24 0 -3
BITMAP
020e38
038c30
430c36
26ffff
160c30
0c0c30
1c3ffc
34300c
66300c
863ffc
0e300c
0e300c
1e300c
163ffc
260180
460180
860186
06ffff
060340
060620
0e0638
0c0c1f
7c180e
18e006
ENDCHAR
STARTCHAR ch-343
ENCODING 343
SWIDTH 1000 0
DWIDTH 24 0
BBX 24 24 0 -3
BITMAP
040000
068006
84ffff
4c8240
28a370
389260
109260
388466
28ff7f
488846
8c88c4
1caab8
1cab30
2caa30
2caa30
4caa30
8caa38
0cbe28
0c8868
0d886c
1d184c
1910cf
fa1086
302106
ENDCHAR
STARTCHAR ch-355
ENCODING 355
SWIDTH 1000 0
DWIDTH 24 0
BBX 24 24 0 -3
BITMAP
0820e0
8438c8
4630c4
6620c6
6040c6
0000c0
7ff0c6
623fff
6230c0
7ff0c0
6230c0
6230c0
7ff1c0
0001a0
fffda0
0001a0
406110
7ff310
606318
606208
60660c
7fe40f
600806
003006
ENDCHAR
STARTCHAR ch-360
ENCODING 360
SWIDTH 1000 0
DWIDTH 24 0
BBX 24 24 0 -3
BITMAP
04400c
077ffe
46648c
26648c
1c648c
087ffc
1c1000
141c00
261806
463fff
8e2206
0e4206
16bfe6
172226
262226
462226
863fe6
060206
060286
060246
0e7fee
0c3c6c
7c207c
180018
ENDCHAR
STARTCHAR ch-362
ENCODING 362
SWIDTH 1000 0
DWIDTH 24 0
BBX 24 24 0 -3
BITMAP
020300
038300
430680
260c60
161838
0c37df
1cc006
340000
667ffc
864104
0e5114
0e4924
1e4104
167ffc
260000
460000
863ff8
063018
063018
063ff8
0e3018
0c3018
7c3ff8
183018
ENDCHAR
STARTCHAR ch-368
ENCODING 368
SWIDTH 1000 0
DWIDTH 24 0
BBX 24 24 0 -3
BITMAP
0201c0
03a180
432186
263fff
166004
0c6100
1c048c
3414a6
663436
8637f0
0e0000
0e0000
1e3ffc
162444
262444
463ffc
860000
060006
06ffff
060180
0e0180
0c0180
7c0f80
180300
ENDCHAR
STARTCHAR ch-370
ENCODING 370
SWIDTH 1000 0
DWIDTH 24 0
BBX 24 24 0 -3
BITMAP
080e70
0e0c62
8cffff
480c60
302080
3030c4
583ffe
487080
8c7ffc
0cb080
0d3ffc
1e3080
163082
163fff
263000
260018
467ffc
860838
060470
0606e0
0c0380
0c06f0
7c1c3f
19e00e
ENDCHAR
STARTCHAR ch-373
ENCODING 373
SWIDTH 1000 0
DWIDTH 24 0
BBX 24 24 0 -3
BITMAP
041108
07198c
863318
4c4420
2c2210
383318
181108
387ffc
2c664c
4c618c
8c630c
1c64cc
1c7ffc
2c0000
2c4218
4c5298
8c4a58
0c4218
0c529a
0c4a5a
1c420a
19ffce
f8e707
308403
ENDCHAR
STARTCHAR ch-376
ENCODING 376
SWIDTH 1000 0
DWIDTH 24 0
BBX 24 24 0 -3
BITMAP
4c9870
7efc60
4c986c
4c9866
4c9866
7cf860
000066
3ff3ff
221060
221060
3ff060
221060
221060
3ff0f0
0000d0
fffed0
0000d0
0000d8
3ff098
303088
30318c
30310f
3ff106
303206
ENDCHAR
STARTCHAR ch-378
ENCODING 378
SWIDTH 1000 0
DWIDTH 24 0
BBX 24 24 0 -3
BITMAP
043806
0731ff
863030
4c3220
2dff26
3830ff
1830c6
39fec6
2d32c6
4d32fe
8d32c6
1d32c6
1d32c6
2dfefe
2c30c6
4c30c6
8c78c6
0c74c6
0cf6fe
0cb600
1d3048
1a3066
f830c3
303303
ENDCHAR
STARTCHAR ch-379
ENCODING 379
SWIDTH 1000 0
DWIDTH 24 0
BBX 24 24 0 -3
BITMAP
038070
033060
03f86c
230466
3ffe66
320460
3ff066
320bff
31f860
300060
3ffc60
300070
37f0d0
3410d0
37f0d0
3000d0
2ff8d8
294898
6b788c
4c088c
49c98e
88890f
08b906
089a06
ENDCHAR
STARTCHAR ch-388
ENCODING 388
SWIDTH 1000 0
DWIDTH 24 0
BBX 24 24 0 -3
BITMAP
001c00
001800
001800
001806
ffffff
001000
001c00
001800
003000
002080
0840e0
0681c0
030180
018300
01c600
00cc00
000840
001030
002018
00400c
0083fe
7ffc06
3e0006
200000
ENDCHAR
STARTCHAR ch-391
ENCODING 391
SWIDTH 1000 0
DWIDTH 24 0
BBX 24 24 0 -3
BITMAP
001c00
001800
00180c
7ffffe
001000
201810
18101c
0d2438
0cc640
006c00
026860
0c121c
78218e
33fec6
21c0c0
001c00
001806
ffffff
001800
001800
001800
001800
001800
001800
ENDCHAR
STARTCHAR ch-393
ENCODING 393
SWIDTH 1000 0
DWIDTH 24 0
BBX 24 24 0 -3
BITMAP
000000
00000c
7ffffe
001800
001800
001800
001800
001800
001800
001800
001818
3ffffc
001800
001800
001900
0018c0
001860
001870
001830
001800
001800
001806
ffffff
000000
ENDCHAR
STARTCHAR ch-395
ENCODING 395
SWIDTH 1000 0
DWIDTH 24 0
BBX 24 24 0 -3
BITMAP
000000
00000c
7ffffe
001800
001800
001800
001800
001800
001800
001800
001818
3ffffc
001800
001800
001800
001800
001800
001800
001800
001800
001800
001806
ffffff
000000
ENDCHAR
STARTCHAR ch-406
ENCODING 406
SWIDTH 1000 0
DWIDTH 24 0
BBX 24 24 0 -3
BITMAP
000400
000700
018600
ffc600
0c0630
0c07f8
0c0c30
0c0c30
0c0860
0c1860
7f9060
0c20c0
0c40c0
0c0180
0c0180
0c0340
0c0240
0f8620
fc0c20
701830
403018
00601f
00c00e
030006
ENDCHAR
STARTCHAR ch-425
ENCODING 425
SWIDTH 1000 0
DWIDTH 24 0
BBX 24 24 0 -3
BITMAP
000000
03000c
ffbffe
180000
180000
180000
180000
180000
1b0000
ff8006
187fff
180c60
180c60
180c60
180c60
180c60
198c60
1e0c60
f81862
701862
403062
006063
00c07f
03003e
ENDCHAR
STARTCHAR ch-434
ENCODING 434
SWIDTH 1000 0
DWIDTH 24 0
BBX 24 24 0 -3
BITMAP
000300
030300
ff8680
180680
180c40
180c60
181838
18101f
1820ce
ff5fe6
188000
190000
180018
187ffc
180618
180618
1f0618
fc0618
700618
400618
0006f8
000630
000600
000600
ENDCHAR
STARTCHAR ch-435
ENCODING 435
SWIDTH 1000 0
DWIDTH 24 0
BBX 24 24 0 -3
BITMAP
0010e0
001cc8
0318c4
ff98c6
1818c6
1818c0
1830c6
1837ff
1b30c0
fff0c0
1870c0
18b0c0
1930c0
183060
183060
183060
193060
1e3032
f83032
703032
40301a
00301f
00300f
003006
ENDCHAR
STARTCHAR ch-443
ENCODING 443
SWIDTH 1000 0
DWIDTH 24 0
BBX 24 24 0 -3
BITMAP
0001c0
000180
030180
ff8180
182186
183fff
183186
183184
183188
1b3180
ffb198
183ffc
183418
183418
183230
183230
186360
1f61c0
fc4080
70c1c0
408370
01063f
00181e
006006
ENDCHAR
STARTCHAR ch-448
ENCODING 448
SWIDTH 1000 0
DWIDTH 24 0
BBX 24 24 0 -3
BITMAP
000100
0001c0
030180
ff8180
180300
182206
183fff
183006
183006
1b3006
ffb006
183006
183006
183ffe
183006
183006
193006
1e3006
f83006
703006
403006
003ffe
003006
003006
ENDCHAR
STARTCHAR ch-450
ENCODING 450
SWIDTH 1000 0
DWIDTH 24 0
BBX 24 24 0 -3
BITMAP
000000
018006
ffffff
180018
180018
180018
182198
183fd8
193198
ffb198
183198
183198
183198
183198
183198
183f98
19b198
1e3018
f80018
700018
400018
000018
0000f8
000030
ENDCHAR
STARTCHAR ch-456
ENCODING 456
SWIDTH 1000 0
DWIDTH 24 0
BBX 24 24 0 -3
BITMAP
007000
006000
066000
ff6000
306646
31ff7f
306666
306666
306666
366666
ff6666
306666
306666
306666
306666
30e666
30c666
32c666
fcc666
708e66
418c7e
010c66
027c66
0c1800
ENDCHAR
STARTCHAR ch-458
ENCODING 458
SWIDTH 1000 0
DWIDTH 24 0
BBX 24 24 0 -3
BITMAP
00200c
033ffe
ffb24c
18324c
18324c
18324c
18324c
18324c
19324c
ffb24c
18324c
18ffff
18324c
18324c
18324c
19324c
1e324c
f8324c
60324c
40324c
00324c
00324c
00327c
003018
ENDCHAR
STARTCHAR ch-461
ENCODING 461
SWIDTH 1000 0
DWIDTH 24 0
BBX 24 24 0 -3
BITMAP
000300
00c300
ffe300
0c0680
0c0680
0c0c40
0c0c60
0c9838
ffd11f
0c21ce
0c4386
0d8700
0c0c40
0c1870
0c60e0
0c01c0
0d8304
0e0c0e
f8701f
600038
4000e0
000380
001c00
01e000
ENDCHAR
STARTCHAR ch-462
ENCODING 462
SWIDTH 1000 0
DWIDTH 24 0
BBX 24 24 0 -3
BITMAP
000800
000e00
030c00
ff8c00
181806
181fff
181000
1831c0
182180
1b4180
ff8180
181190
181d88
18198c
181986
183186
193187
1e6183
f84183
708183
410180
000180
000f80
000300
ENDCHAR
STARTCHAR ch-478
ENCODING 478
SWIDTH 1000 0
DWIDTH 24 0
BBX 24 24 0 -3
BITMAP
000800
000e00
030c30
ff9ff8
181830
183060
182860
1844c0
1b0380
ff8380
1806e0
180c7f
18101e
186006
198000
183ff8
1f3018
fc3018
703018
403018
003018
003ff8
003018
003018
ENDCHAR
STARTCHAR ch-480
ENCODING 480
SWIDTH 1000 0
DWIDTH 24 0
BBX 24 24 0 -3
BITMAP
000380
002300
033b00
ffb300
18330c
183ffe
186300
184300
188300
ff0300
180306
19ffff
180f40
180b40
181b20
191b20
1e3330
f83318
70631c
40c30f
01830e
060306
000300
000300
ENDCHAR
STARTCHAR ch-485
ENCODING 485
SWIDTH 1000 0
DWIDTH 24 0
BBX 24 24 0 -3
BITMAP
000006
007fff
030c18
ff8c18
180c18
180c18
180ff8
180c18
1b0c18
ff8c18
180c18
180c18
180ff8
180c18
180c18
190c18
1e0c18
f80c1f
70fff8
407e18
004018
000018
000018
000018
ENDCHAR
STARTCHAR ch-490
ENCODING 490
SWIDTH 1000 0
DWIDTH 24 0
BBX 24 24 0 -3
BITMAP
0001c0
030180
ff8180
18018c
183ffe
180180
180180
180180
180186
ff7fff
180000
180000
1801c0
180180
18018c
183ffe
180180
198180
fe0180
700180
400180
000186
00ffff
000000
ENDCHAR
STARTCHAR ch-493
ENCODING 493
SWIDTH 1000 0
DWIDTH 24 0
BBX 24 24 0 -3
BITMAP
000e00
018c06
ffcfff
0c0c60
0c0c60
0c0c60
0c4c60
0c4c60
0c4c60
0c4c60
7fcc64
0ccffe
0ccc60
0c0c60
0c0c60
0c0860
0c1860
0cd860
0f1060
fc3060
702060
404066
008fff
000000
ENDCHAR
STARTCHAR ch-494
ENCODING 494
SWIDTH 1000 0
DWIDTH 24 0
BBX 24 24 0 -3
BITMAP
008018
00fffc
06c018
ffc018
30c098
30dfd8
30c218
30c218
36d258
ffdfd8
30d258
30d258
30d258
30d258
30d258
3ed258
f8d3da
6192da
41820a
01020a
03020e
020206
040207
080003
ENDCHAR
STARTCHAR ch-497
ENCODING 497
SWIDTH 1000 0
DWIDTH 24 0
BBX 24 24 0 -3
BITMAP
000404
004207
032306
ffb10c
18118c
181988
181998
181810
180020
1b0400
ff8700
180600
180606
18ffff
180c30
180c30
191860
1e1860
f836c0
703180
400360
000638
00181c
00e00c
ENDCHAR
STARTCHAR ch-504
ENCODING 504
SWIDTH 1000 0
DWIDTH 24 0
BBX 24 24 0 -3
BITMAP
00000c
037ffe
ff8600
180600
180600
180630
183ff8
180c30
1b0c30
ff8c30
180c30
180c36
18ffff
180000
180000
192018
1e3ffc
f83018
703018
403018
003018
003018
003ff8
003018
ENDCHAR
STARTCHAR ch-510
ENCODING 510
SWIDTH 1000 0
DWIDTH 24 0
BBX 24 24 0 -3
BITMAP
00100c
019ffe
ffd80c
0c180c
0c180c
0c1ffc
0c180c
0c180c
0c980c
ffdffc
0c180c
0c180c
0c180c
0c180c
0c1ffc
0c8460
0f0760
fc0660
700e62
400c62
001862
003063
00607f
03803e
ENDCHAR
ENDFONT
